<svg xmlns="http://www.w3.org/2000/svg" width="200.858" height="66.118" viewBox="0 0 200.858 66.118"><defs><style>.a{fill:#e9ebeb;}</style></defs><path class="a" d="M104.4,41.522a16.574,16.574,0,0,1-33.149,0,16.574,16.574,0,0,1,33.149,0Zm-7.255,0c0-5.944-4.313-10.012-9.319-10.012s-9.319,4.067-9.319,10.012c0,5.885,4.313,10.012,9.319,10.012S97.143,47.4,97.143,41.522Z" transform="translate(-18.443 -6.727)"/><path class="a" d="M152.4,41.522a16.574,16.574,0,0,1-33.149,0,16.574,16.574,0,0,1,33.149,0Zm-7.255,0c0-5.944-4.313-10.012-9.319-10.012s-9.319,4.067-9.319,10.012c0,5.885,4.313,10.012,9.319,10.012S145.143,47.4,145.143,41.522Z" transform="translate(-30.687 -6.727)"/><path class="a" d="M198.9,26V55.661c0,12.2-7.2,17.185-15.7,17.185a15.734,15.734,0,0,1-14.645-9.736l6.317-2.63a9.127,9.127,0,0,0,8.321,5.862c5.445,0,8.82-3.36,8.82-9.684V54.283h-.253a11.249,11.249,0,0,1-8.7,3.754c-8.261,0-15.829-7.2-15.829-16.455C167.23,32.255,174.8,25,183.059,25a11.449,11.449,0,0,1,8.7,3.695h.253V26.006h6.89Zm-6.376,15.584c0-5.818-3.881-10.071-8.82-10.071-5.006,0-9.2,4.253-9.2,10.071,0,5.758,4.194,9.952,9.2,9.952C188.646,51.534,192.527,47.34,192.527,41.582Z" transform="translate(-42.926 -6.727)"/><path class="a" d="M222.577,3V51.419H215.5V3Z" transform="translate(-55.24 -1.115)"/><path class="a" d="M253.62,46.957l5.632,3.754a16.445,16.445,0,0,1-13.766,7.322,16.165,16.165,0,0,1-16.4-16.522c0-9.825,7.069-16.522,15.584-16.522,8.574,0,12.768,6.823,14.138,10.511l.752,1.877-22.087,9.148a8.409,8.409,0,0,0,8.008,5.006,9.43,9.43,0,0,0,8.134-4.574Zm-17.334-5.944,14.764-6.131c-.812-2.063-3.255-3.5-6.131-3.5A9.063,9.063,0,0,0,236.286,41.013Z" transform="translate(-58.706 -6.725)"/><path class="a" d="M26.38,30.967v-7.01H50a23.226,23.226,0,0,1,.35,4.231c0,5.259-1.438,11.762-6.071,16.4-4.507,4.693-10.265,7.2-17.893,7.2C12.249,51.78.36,40.263.36,26.125S12.249.47,26.387.47a24.446,24.446,0,0,1,17.58,7.069l-4.946,4.946A17.868,17.868,0,0,0,26.38,7.48,18.4,18.4,0,0,0,7.98,26.125,18.4,18.4,0,0,0,26.38,44.77c6.7,0,10.511-2.689,12.954-5.132,1.981-1.981,3.285-4.812,3.8-8.678Z" transform="translate(-0.36 -0.47)"/></svg>