<svg xmlns="http://www.w3.org/2000/svg" width="81.92" height="81.906" viewBox="0 0 81.92 81.906"><defs><style>.a{fill:#ffa713;}</style></defs><g transform="translate(-988.018 -1859.581)"><path class="a" d="M43.476.547l2.734.608,2.218.79,1.793.911,1.367.972,1.033,1.033.76,1.033.486,1,.3.911.122.79.061.608-.03.395V25.824l-.152,1.914-.395,1.671-.638,1.4-.79,1.155-.911.942-1,.76-1.063.577-1.063.425-1,.3-.911.213-.79.122-.638.061H26.827l-2.1.152-1.793.425-1.519.668-1.246.82-1,.972-.82,1.063-.608,1.094-.456,1.124-.3,1.063-.213.972-.122.82-.061.638v9.3H9.813l-.638-.091-.851-.213-.972-.365-1.063-.547L5.2,52.469,4.1,51.375l-1.063-1.4-.972-1.793-.851-2.218L.577,43.294.152,40.1,0,36.367.182,32.66.668,29.5,1.4,26.857,2.37,24.7l1.094-1.732,1.215-1.337,1.276-1L7.231,19.9l1.215-.486,1.094-.3.972-.152.729-.03h.486l.182.03H36.7V16.436H18.958l-.03-8.355-.061-1.124.152-1.033.334-.942.516-.851.76-.79.942-.7,1.154-.608,1.337-.547,1.549-.456L27.374.668l1.944-.3L31.475.182,33.815.061,36.367,0l3.858.152,3.251.395ZM24.336,6.562l-.7,1-.243,1.246.243,1.246.7,1.033,1,.668,1.246.273,1.246-.273,1-.668.7-1.033.243-1.246-.243-1.246-.7-1-1-.668-1.246-.273-1.246.273-1,.668Zm39.769,12,.851.182.972.365,1.063.547,1.094.82,1.094,1.063,1.063,1.428.972,1.793.851,2.218.638,2.674.425,3.16.152,3.737L73.1,40.286l-.486,3.16-.729,2.613-.972,2.157-1.094,1.732L68.6,51.314l-1.276,1-1.276.729-1.215.486-1.094.273-.972.152-.729.061-.486-.03H36.579v2.491H54.322l.03,8.385.061,1.094-.152,1.033-.334.942-.516.881-.76.76-.942.729-1.155.608-1.337.516-1.549.456-1.762.395-1.944.273-2.157.213-2.339.122-2.552.03-3.858-.122L29.8,72.369l-2.734-.608L24.852,71,23.06,70.09l-1.367-1-1.033-1.033-.76-1.033-.486-1-.3-.911-.122-.76-.061-.608.03-.395V47.122l.152-1.944.395-1.641.638-1.4.79-1.154.911-.972,1-.729,1.063-.608,1.063-.425,1-.3.911-.182.79-.122.638-.061.395-.03H46.453l2.1-.152,1.793-.425,1.519-.638,1.246-.851,1-.972.82-1.063.608-1.094.456-1.094.3-1.063.213-.972.122-.851.061-.638v-9.3h6.35l.425.03.638.091ZM44.448,61.857l-.7,1-.243,1.246.243,1.246.7,1,1,.7L46.7,67.3l1.246-.243,1-.7.7-1,.243-1.246-.243-1.246-.7-1-1-.7L46.7,60.915l-1.246.243-1,.7Z" transform="translate(988.018 1868.571)"/><path class="a" d="M14.9,0h5.042V23.341a33.279,33.279,0,0,1-6.548.687c-6.156,0-9.365-2.783-9.365-8.121,0-5.141,3.405-8.481,8.677-8.481a8.05,8.05,0,0,1,2.193.262Zm0,11.748a5,5,0,0,0-1.7-.262c-2.554,0-4.027,1.571-4.027,4.323,0,2.686,1.408,4.158,3.995,4.158a11.634,11.634,0,0,0,1.735-.131V11.747ZM27.965,7.787V19.476c0,4.027-.294,5.96-1.178,7.629a8.056,8.056,0,0,1-4.126,3.733L17.978,28.61c2.227-1.047,3.307-1.965,3.995-3.373.721-1.44.95-3.111.95-7.5V7.785h5.042ZM22.923.027h5.042V5.2H22.923Z" transform="translate(1041.974 1859.581)"/></g></svg>