<svg xmlns="http://www.w3.org/2000/svg" width="101.377" height="72.916" viewBox="0 0 101.377 72.916"><defs><style>.a{fill:#ffa713;}</style></defs><g transform="translate(-1424.281 -1856.2)"><path class="a" d="M0,0H17.705V2.414H0Z" transform="translate(1496.599 1880.666)"/><path class="a" d="M38.2,52.346H0V0H38.2V52.346h0ZM2.37,49.539H35.689V10.946H2.37ZM35.689,8.28V2.386H2.37V8.28Z" transform="translate(1487.46 1876.769)"/><path class="a" d="M59.737,70.375H25.368V65.328H31.5V62.464H0V0H87.286V18H59.737V62.464H55.781v2.864h3.955v5.046h0ZM12.2,14.894V31.809a12.692,12.692,0,0,0,1.534,6.439A9.826,9.826,0,0,0,17.914,42.2a13.371,13.371,0,0,0,5.995,1.312,13.71,13.71,0,0,0,6.076-1.332,10.387,10.387,0,0,0,4.34-3.956,12.081,12.081,0,0,0,1.615-6.419V14.894h-6.9V31.85a7.213,7.213,0,0,1-.323,2.251,4.425,4.425,0,0,1-.969,1.665A4.078,4.078,0,0,1,26.17,36.8a6.181,6.181,0,0,1-2.14.343A6.1,6.1,0,0,1,21.9,36.8a3.918,3.918,0,0,1-1.544-1.029,4.459,4.459,0,0,1-.939-1.665A7.428,7.428,0,0,1,19.1,31.85V14.894H12.2Zm28.582,0v28.34h6.9V14.894h-6.9Z" transform="translate(1424.281 1856.2)"/><path class="a" d="M9.467-80.73v6.587a2.18,2.18,0,0,0,.486,1.521,1.835,1.835,0,0,0,1.427.533,1.886,1.886,0,0,0,1.443-.533,2.136,2.136,0,0,0,.5-1.521V-80.73h2.682v6.572a4.672,4.672,0,0,1-.627,2.494,4.017,4.017,0,0,1-1.686,1.537,5.3,5.3,0,0,1-2.36.518A5.171,5.171,0,0,1,9-70.12a3.8,3.8,0,0,1-1.623-1.537,4.909,4.909,0,0,1-.6-2.5V-80.73ZM24.634-69.72l-2.243-3.372L20.415-69.72H17.372l3.529-5.6L17.293-80.73h3.121L22.626-77.4l1.945-3.325h3.043l-3.5,5.552,3.639,5.458Z" transform="translate(1488.523 1977.2)"/></g></svg>