<svg xmlns="http://www.w3.org/2000/svg" width="275.264" height="100.906" viewBox="0 0 275.264 100.906"><defs><style>.a{fill:#e9ebeb;}</style></defs><g transform="translate(-542.391 -2380.991)"><path class="a" d="M69.7-61.512h13.64v37.84q0,11.616-5.676,18T61.6.7a21.031,21.031,0,0,1-9.46-2.156,19.025,19.025,0,0,1-7.172-6.116A19.392,19.392,0,0,1,28.468.7q-10.428,0-16.1-6.38t-5.676-18v-37.84h13.64v37.84q0,5.632,2.244,8.668A7.507,7.507,0,0,0,29-11.968,7.864,7.864,0,0,0,35.552-15q2.376-3.036,2.376-8.668l.088-37.84h13.9l.088,37.84q0,5.632,2.376,8.668a7.911,7.911,0,0,0,6.6,3.036A7.552,7.552,0,0,0,67.452-15Q69.7-18.04,69.7-23.672ZM117.128.7a21.7,21.7,0,0,1-15.84-6.776q-6.776-6.776-6.776-17.82t6.952-17.644a22.683,22.683,0,0,1,16.1-6.6,17.95,17.95,0,0,1,12.408,4.752v-3.96h13.288V0H129.976V-3.872A19.812,19.812,0,0,1,117.128.7ZM107.8-23.584a13.255,13.255,0,0,0,3.432,9.46,10.668,10.668,0,0,0,8.008,3.652,9.875,9.875,0,0,0,7.744-3.652,13.852,13.852,0,0,0,3.168-9.416,14.717,14.717,0,0,0-3.168-9.636,9.745,9.745,0,0,0-7.832-3.872,10.288,10.288,0,0,0-8.008,3.828A14.117,14.117,0,0,0,107.8-23.584Zm61.688-37.928v14.168h11.44v10.3h-11.44v20.416a6.09,6.09,0,0,0,1.408,4.268,4.385,4.385,0,0,0,3.344,1.54,7.624,7.624,0,0,0,6.248-3.344l4.928,9.24Q179.256.7,172.436.7a16.079,16.079,0,0,1-11.528-4.488Q156.2-8.272,156.2-16.016v-45.5ZM227.92-14.74a13.785,13.785,0,0,1-5.148,11.22Q217.624.7,209.7.7a34.983,34.983,0,0,1-11-1.892,32.461,32.461,0,0,1-10.3-5.588l5.808-8.272a25.3,25.3,0,0,0,15.752,5.72,7.128,7.128,0,0,0,4.048-1.012,3.1,3.1,0,0,0,1.5-2.684q0-1.672-2.068-3.08a23.339,23.339,0,0,0-5.984-2.64q-3.916-1.232-5.984-2.112a33.667,33.667,0,0,1-4.708-2.552,10.926,10.926,0,0,1-5.368-9.9A12.971,12.971,0,0,1,196.68-44q5.28-4.136,13.64-4.136T227.04-42.5l-4.928,8.8a21.612,21.612,0,0,0-12.276-4.224q-6.116,0-6.116,3.344a3.218,3.218,0,0,0,1.936,2.9,39.175,39.175,0,0,0,6.424,2.464q4.488,1.408,6.38,2.156a32.091,32.091,0,0,1,4.532,2.332Q227.92-21.736,227.92-14.74ZM256.7-3.52q-19.1,0-19.1-20.416V-47.344h13.288V-28.16q0,7.04,1.892,9.944t6.512,2.9q4.62,0,7-2.772t2.376-7.876V-47.432h13.288V-7.656q0,12.408-6.556,19.36t-16.852,6.952a24.579,24.579,0,0,1-14.036-4.048,23.784,23.784,0,0,1-8.932-11.616l11.352-4.928q3.432,9.328,11.44,9.328a9.73,9.73,0,0,0,8.008-3.74,14.666,14.666,0,0,0,2.992-9.46,14.336,14.336,0,0,0-.088-1.584A21.447,21.447,0,0,1,256.7-3.52Z" transform="translate(535.703 2442.503)"/><path class="a" d="M-205.242-17.648V-1.09h.082a8.648,8.648,0,0,0,6.41-2.25,8.222,8.222,0,0,0,2.5-6.035,8.247,8.247,0,0,0-2.5-6.035,8.674,8.674,0,0,0-6.41-2.238Zm0-1.078h.082q4.629,0,7.172,2.555a9.285,9.285,0,0,1,2.813,6.8,9.26,9.26,0,0,1-2.812,6.8q-2.543,2.555-7.172,2.555h-.082V0H-206.3V-18.75h1.055Zm14.285,7.219V0h-1.055V-11.508Zm-.527-4.078a1.025,1.025,0,0,1,.744.3,1,1,0,0,1,.311.738,1.01,1.01,0,0,1-.311.75,1.025,1.025,0,0,1-.744.3,1.025,1.025,0,0,1-.744-.3,1.01,1.01,0,0,1-.311-.75,1,1,0,0,1,.311-.738A1.025,1.025,0,0,1-191.484-15.586Zm7.441,9.668a8.519,8.519,0,0,1-1.863-1.242,2.652,2.652,0,0,1-.809-1.945,2.685,2.685,0,0,1,.809-1.963,2.643,2.643,0,0,1,1.945-.814,2.573,2.573,0,0,1,1.9.75,2.328,2.328,0,0,1,.727,1.676V-9.4l-.914.363a2.272,2.272,0,0,0-.557-1.336,1.55,1.55,0,0,0-1.154-.445,1.656,1.656,0,0,0-1.207.5,1.641,1.641,0,0,0-.5,1.213,1.647,1.647,0,0,0,.5,1.207,8.218,8.218,0,0,0,1.242.891,9.781,9.781,0,0,1,2.133,1.453,3.3,3.3,0,0,1,1,2.4,3.321,3.321,0,0,1-1,2.432,3.278,3.278,0,0,1-2.414,1,3.278,3.278,0,0,1-2.414-1,3.065,3.065,0,0,1-1-2.2l1.043-.27a2.328,2.328,0,0,0,.7,1.723,2.288,2.288,0,0,0,1.67.691,2.288,2.288,0,0,0,1.67-.691,2.286,2.286,0,0,0,.7-1.687,2.269,2.269,0,0,0-.691-1.664A10.145,10.145,0,0,0-184.043-5.918Zm8.426,3.762A5.07,5.07,0,0,0-172.078-.8a5.126,5.126,0,0,0,3.762-1.559q.2-.2.375-.41l1.113.4a6.652,6.652,0,0,1-.691.809A6.211,6.211,0,0,1-172.078.328a6.2,6.2,0,0,1-4.547-1.887,6.211,6.211,0,0,1-1.887-4.559,6.2,6.2,0,0,1,1.887-4.547,6.2,6.2,0,0,1,4.547-1.887,6.2,6.2,0,0,1,4,1.371q.281.234.563.516.105.105.2.211l-.8.8Zm6.727-8.215a5.081,5.081,0,0,0-3.187-1.055,5.122,5.122,0,0,0-3.75,1.553,5.107,5.107,0,0,0-1.559,3.756,5.081,5.081,0,0,0,1.055,3.188Zm5.93,1.43V0h-1.055V-11.508h1.055v.738a4.615,4.615,0,0,1,3.352-1.43,4.487,4.487,0,0,1,3.316,1.277A4.49,4.49,0,0,1-154.98-7.7V0h-1.055V-7.605a3.372,3.372,0,0,0-1.061-2.5,3.474,3.474,0,0,0-2.514-1.037,3.485,3.485,0,0,0-2.508,1.02A3.958,3.958,0,0,0-162.961-8.941Zm3.4-5.766a2.587,2.587,0,0,0,1.453.7h.059q.586-.035.82-.984h.809q-.246,1.512-1.16,1.781a1.784,1.784,0,0,1-.492.07,2.175,2.175,0,0,1-1.348-.539,2.607,2.607,0,0,0-1.453-.691h-.059q-.586.035-.82.984h-.82q.258-1.512,1.172-1.781a1.784,1.784,0,0,1,.492-.07A2.2,2.2,0,0,1-159.562-14.707Zm13.828,2.156a6.192,6.192,0,0,1,4.553,1.887A6.221,6.221,0,0,1-139.3-6.105a6.207,6.207,0,0,1-1.881,4.547A6.192,6.192,0,0,1-145.734.328a6.2,6.2,0,0,1-4.547-1.887,6.2,6.2,0,0,1-1.887-4.547,6.211,6.211,0,0,1,1.887-4.559A6.2,6.2,0,0,1-145.734-12.551Zm0,1.125A5.126,5.126,0,0,0-149.5-9.867a5.126,5.126,0,0,0-1.559,3.762A5.107,5.107,0,0,0-149.5-2.35,5.136,5.136,0,0,0-145.734-.8a5.136,5.136,0,0,0,3.762-1.553,5.107,5.107,0,0,0,1.559-3.756,5.126,5.126,0,0,0-1.559-3.762A5.126,5.126,0,0,0-145.734-11.426ZM-126-2.156A5.07,5.07,0,0,0-122.461-.8,5.126,5.126,0,0,0-118.7-2.355q.2-.2.375-.41l1.113.4a6.652,6.652,0,0,1-.691.809A6.211,6.211,0,0,1-122.461.328a6.2,6.2,0,0,1-4.547-1.887,6.211,6.211,0,0,1-1.887-4.559,6.2,6.2,0,0,1,1.887-4.547,6.2,6.2,0,0,1,4.547-1.887,6.2,6.2,0,0,1,4,1.371q.281.234.563.516.105.105.2.211l-.8.8Zm6.727-8.215a5.081,5.081,0,0,0-3.187-1.055,5.122,5.122,0,0,0-3.75,1.553,5.107,5.107,0,0,0-1.559,3.756,5.081,5.081,0,0,0,1.055,3.188Zm22.758-8.379V0H-97.57V-18.75Zm3.75,7.242h1.055v.27a3.274,3.274,0,0,1,2.355-.949,3.288,3.288,0,0,1,2.414,1,3.355,3.355,0,0,1,.469.586,3.675,3.675,0,0,1,.48-.586,3.288,3.288,0,0,1,2.414-1,3.288,3.288,0,0,1,2.414,1,3.342,3.342,0,0,1,1,2.309V0h-1.055V-8.883h.012a2.3,2.3,0,0,0-.691-1.559,2.307,2.307,0,0,0-1.676-.691,2.288,2.288,0,0,0-1.67.691,2.328,2.328,0,0,0-.7,1.723V0H-87V-8.883h.012a2.3,2.3,0,0,0-.691-1.559,2.307,2.307,0,0,0-1.676-.691,2.269,2.269,0,0,0-1.664.691,2.29,2.29,0,0,0-.691,1.465V0h-1.055Zm16.113,0H-75.6v1.617a6.754,6.754,0,0,1,.668-.773,6.217,6.217,0,0,1,4.547-1.875,6.2,6.2,0,0,1,4.553,1.881,6.2,6.2,0,0,1,1.881,4.553A6.207,6.207,0,0,1-65.83-1.559,6.192,6.192,0,0,1-70.383.328,6.2,6.2,0,0,1-74.93-1.559a6.754,6.754,0,0,1-.668-.773V4.395h-1.055Zm1.055,4.3V-5a5.136,5.136,0,0,0,1.453,2.66A5.126,5.126,0,0,0-70.383-.785a5.126,5.126,0,0,0,3.762-1.559,5.126,5.126,0,0,0,1.559-3.762,5.126,5.126,0,0,0-1.559-3.762,5.126,5.126,0,0,0-3.762-1.559,5.126,5.126,0,0,0-3.762,1.559A5.136,5.136,0,0,0-75.6-7.207Zm14.578-4.3h1.055v2.1a6.762,6.762,0,0,1,.762-.9,4.386,4.386,0,0,1,2.859-1.465v1.148a3.247,3.247,0,0,0-2.062,1.113,5.068,5.068,0,0,0-1.559,3.574V0H-61.02Zm9.211,9.352A5.07,5.07,0,0,0-48.27-.8a5.126,5.126,0,0,0,3.762-1.559q.2-.2.375-.41l1.113.4a6.652,6.652,0,0,1-.691.809A6.211,6.211,0,0,1-48.27.328a6.2,6.2,0,0,1-4.547-1.887A6.211,6.211,0,0,1-54.7-6.117a6.2,6.2,0,0,1,1.887-4.547,6.2,6.2,0,0,1,4.547-1.887,6.2,6.2,0,0,1,4,1.371q.281.234.563.516.105.105.2.211l-.8.8Zm6.727-8.215a5.081,5.081,0,0,0-3.187-1.055,5.122,5.122,0,0,0-3.75,1.553,5.107,5.107,0,0,0-1.559,3.756A5.081,5.081,0,0,0-52.523-2.93Zm8.039,4.453A8.519,8.519,0,0,1-38.906-7.16a2.652,2.652,0,0,1-.809-1.945,2.685,2.685,0,0,1,.809-1.963,2.643,2.643,0,0,1,1.945-.814,2.573,2.573,0,0,1,1.9.75,2.328,2.328,0,0,1,.727,1.676V-9.4l-.914.363a2.272,2.272,0,0,0-.557-1.336,1.55,1.55,0,0,0-1.154-.445,1.656,1.656,0,0,0-1.207.5,1.641,1.641,0,0,0-.5,1.213,1.647,1.647,0,0,0,.5,1.207,8.218,8.218,0,0,0,1.242.891,9.781,9.781,0,0,1,2.133,1.453,3.3,3.3,0,0,1,1,2.4,3.321,3.321,0,0,1-1,2.432,3.278,3.278,0,0,1-2.414,1,3.278,3.278,0,0,1-2.414-1,3.065,3.065,0,0,1-1-2.2l1.043-.27a2.328,2.328,0,0,0,.7,1.723,2.288,2.288,0,0,0,1.67.691,2.288,2.288,0,0,0,1.67-.691,2.286,2.286,0,0,0,.7-1.687,2.269,2.269,0,0,0-.691-1.664A10.145,10.145,0,0,0-37.043-5.918Zm7.523-5.59V0h-1.055V-11.508Zm-.527-4.078a1.025,1.025,0,0,1,.744.3,1,1,0,0,1,.311.738,1.01,1.01,0,0,1-.311.75,1.025,1.025,0,0,1-.744.3,1.025,1.025,0,0,1-.744-.3,1.01,1.01,0,0,1-.311-.75,1,1,0,0,1,.311-.738A1.025,1.025,0,0,1-30.047-15.586Zm10.008,3.035a6.192,6.192,0,0,1,4.553,1.887,6.221,6.221,0,0,1,1.881,4.559,6.207,6.207,0,0,1-1.881,4.547A6.192,6.192,0,0,1-20.039.328a6.2,6.2,0,0,1-4.547-1.887,6.2,6.2,0,0,1-1.887-4.547,6.211,6.211,0,0,1,1.887-4.559A6.2,6.2,0,0,1-20.039-12.551Zm0,1.125A5.126,5.126,0,0,0-23.8-9.867a5.126,5.126,0,0,0-1.559,3.762A5.107,5.107,0,0,0-23.8-2.35,5.136,5.136,0,0,0-20.039-.8,5.136,5.136,0,0,0-16.277-2.35a5.107,5.107,0,0,0,1.559-3.756,5.126,5.126,0,0,0-1.559-3.762A5.126,5.126,0,0,0-20.039-11.426Zm2.566-4.828-2.871,2.191h-.984l1.91-2.191Zm7.734,7.313V0h-1.055V-11.508h1.055v.738A4.615,4.615,0,0,1-6.387-12.2,4.487,4.487,0,0,1-3.07-10.922,4.49,4.49,0,0,1-1.758-7.7V0H-2.812V-7.605a3.372,3.372,0,0,0-1.061-2.5,3.474,3.474,0,0,0-2.514-1.037,3.485,3.485,0,0,0-2.508,1.02A3.958,3.958,0,0,0-9.738-8.941Z" transform="translate(775.703 2477.503)"/></g></svg>