<svg xmlns="http://www.w3.org/2000/svg" width="72.916" height="72.916" viewBox="0 0 72.916 72.916"><defs><style>.a{fill:#ffa713;}</style></defs><path class="a" d="M0,2.25V75.166H72.916V2.25ZM39.68,59.118c0,7.1-4.167,10.335-10.237,10.335-5.485,0-8.659-2.832-10.286-6.266l5.583-3.369c1.074,1.9,2.051,3.516,4.411,3.516,2.246,0,3.678-.879,3.678-4.313V35.729H39.68ZM55.891,69.453c-6.364,0-10.482-3.027-12.484-7l5.583-3.223c1.465,2.393,3.385,4.167,6.754,4.167,2.832,0,4.655-1.416,4.655-3.385,0-2.344-1.855-3.174-5-4.557l-1.709-.732c-4.948-2.1-8.219-4.753-8.219-10.335,0-5.143,3.922-9.049,10.026-9.049,4.362,0,7.487,1.514,9.733,5.485L59.9,44.242c-1.172-2.1-2.441-2.93-4.411-2.93a2.974,2.974,0,0,0-3.271,2.93c0,2.051,1.27,2.881,4.215,4.167l1.709.732c5.827,2.49,9.1,5.046,9.1,10.775,0,6.152-4.85,9.538-11.344,9.538Z" transform="translate(0 -2.25)"/></svg>