<svg xmlns="http://www.w3.org/2000/svg" width="22.996" height="22.421" viewBox="0 0 22.996 22.421"><defs><style>.a{fill:#e9ebeb;}</style></defs><path class="a" d="M7.692,18.616c0,.093-.107.167-.241.167-.153.014-.26-.06-.26-.167s.107-.167.241-.167S7.692,18.51,7.692,18.616ZM6.25,18.408c-.032.093.06.2.2.227a.217.217,0,0,0,.287-.093c.028-.093-.06-.2-.2-.241A.238.238,0,0,0,6.25,18.408ZM8.3,18.329c-.134.032-.227.121-.213.227s.134.153.274.121.227-.121.213-.213S8.433,18.315,8.3,18.329ZM11.35.563A11.117,11.117,0,0,0,0,11.875a11.624,11.624,0,0,0,7.858,11.09c.593.107.8-.26.8-.561s-.014-1.873-.014-2.847c0,0-3.245.7-3.927-1.382,0,0-.529-1.349-1.289-1.7,0,0-1.062-.728.074-.714a2.447,2.447,0,0,1,1.79,1.2,2.451,2.451,0,0,0,3.38.969,2.577,2.577,0,0,1,.742-1.562C6.825,16.08,4.21,15.7,4.21,11.244A3.514,3.514,0,0,1,5.3,8.514a4.38,4.38,0,0,1,.121-3.148c.969-.3,3.2,1.252,3.2,1.252a10.953,10.953,0,0,1,5.823,0s2.23-1.558,3.2-1.252a4.378,4.378,0,0,1,.121,3.148,3.6,3.6,0,0,1,1.2,2.731c0,4.474-2.731,4.831-5.322,5.123a2.742,2.742,0,0,1,.788,2.151c0,1.562-.014,3.5-.014,3.876,0,.3.213.668.8.561A11.517,11.517,0,0,0,23,11.875,11.368,11.368,0,0,0,11.35.563ZM4.506,16.553c-.06.046-.046.153.032.241s.181.107.241.046.046-.153-.032-.241S4.567,16.493,4.506,16.553Zm-.5-.376c-.032.06.014.134.107.181a.138.138,0,0,0,.2-.032c.032-.06-.014-.134-.107-.181C4.112,16.117,4.038,16.131,4.006,16.177Zm1.5,1.651c-.074.06-.046.2.06.287.107.107.241.121.3.046s.032-.2-.06-.287C5.707,17.768,5.568,17.754,5.508,17.828Zm-.529-.682c-.074.046-.074.167,0,.274s.2.153.26.107a.211.211,0,0,0,0-.287C5.174,17.133,5.054,17.086,4.979,17.146Z" transform="translate(0 -0.563)"/></svg>