<svg xmlns="http://www.w3.org/2000/svg" width="104.149" height="72.916" viewBox="0 0 104.149 72.916"><defs><style>.a{fill:#ffa713;}</style></defs><path class="a" d="M56.94,35.494H46.185V25.828H56.94Zm0-33.244H46.185v9.877H56.94ZM69.665,25.812H58.909v9.666H69.665V25.812ZM44.232,14.08H33.476v9.78H44.232Zm12.709,0H46.185v9.78H56.94Zm45.041,16.272c-2.343-1.578-7.746-2.148-11.895-1.367C89.55,25.08,87.369,21.679,83.4,18.62l-2.278-1.513-1.513,2.278c-2.994,4.524-3.808,11.976-.6,16.891a16.367,16.367,0,0,1-7.876,1.741H.395a34.162,34.162,0,0,0,7.16,26.377c6.037,7.143,15.084,10.772,26.914,10.772,25.612,0,44.57-11.8,53.438-33.228,3.482.065,11,.016,14.857-7.355.244-.407,1.074-2.148,1.383-2.783l-2.164-1.448Zm-83.167-4.54H8.075v9.666H18.831V25.812Zm12.709,0H20.767v9.666H31.523V25.812Zm12.709,0H33.476v9.666H44.232V25.812ZM31.523,14.08H20.767v9.78H31.523Z" transform="translate(0.003 -2.25)"/></svg>