<svg xmlns="http://www.w3.org/2000/svg" width="72.917" height="72.916" viewBox="0 0 72.917 72.916"><defs><style>.a{fill:#ffa713;}</style></defs><path class="a" d="M71.542,35.461,39.714,3.625a4.7,4.7,0,0,0-6.642,0l-6.618,6.613,8.385,8.385A5.579,5.579,0,0,1,41.9,25.733l8.083,8.083a5.589,5.589,0,0,1,5.773,9.227c-4.312,4.312-11.427-.467-9.115-6.077L39.1,29.431V49.263a5.583,5.583,0,1,1-4.593-.163V29.081a5.583,5.583,0,0,1-3.034-7.324L23.2,13.48,1.375,35.313a4.7,4.7,0,0,0,0,6.642L33.213,73.791a4.7,4.7,0,0,0,6.641,0L71.542,42.1a4.7,4.7,0,0,0,0-6.642Z" transform="translate(0 -2.25)"/></svg>