<svg xmlns="http://www.w3.org/2000/svg" width="107.381" height="72.916" viewBox="0 0 107.381 72.916"><defs><style>.a{fill:#ffa713;}</style></defs><path class="a" d="M73.4,13.421a4.937,4.937,0,0,0-1.226.148v.058h.063a10.094,10.094,0,0,0,.957,1.221c.242.479.447.957.689,1.432l.063-.067a1.664,1.664,0,0,0,.626-1.49c-.179-.21-.206-.421-.358-.626-.179-.3-.564-.447-.805-.685ZM25.816,72.454H21.669c-.134-6.989-.55-13.557-1.208-19.731h-.036L14.116,72.454H10.962L4.7,52.723H4.653Q3.962,61.6,3.781,72.454H0Q.369,59.259,1.834,47.711H6.98l5.973,18.183h.036l6.027-18.183h4.9q1.624,13.523,1.915,24.742ZM43.789,54.2q-2.537,13.725-6.675,19.955-3.235,4.805-7.083,4.8a6.983,6.983,0,0,1-2.532-.617v-2.21a11.481,11.481,0,0,0,1.727.116,4.172,4.172,0,0,0,2.895-.993,3.6,3.6,0,0,0,1.32-2.707,17.947,17.947,0,0,0-1.029-4.224L27.874,54.2h4.072L35.2,64.758a14.177,14.177,0,0,1,.917,5.025A68.257,68.257,0,0,0,39.852,54.2h3.937ZM98.933,72.454H87.166V47.711h3.96v21.7h7.807Zm-14.854.6-4.546-2.237A9.609,9.609,0,0,0,80.674,69.7q2.906-3.4,2.9-10.08,0-12.282-9.642-12.286a9.174,9.174,0,0,0-7.382,3.119q-2.886,3.409-2.89,10.045,0,6.523,2.568,9.575,2.349,2.752,7.083,2.752a11.375,11.375,0,0,0,3.244-.438l5.928,3.454,1.611-2.783ZM69.35,67.5c-1.007-1.611-1.508-4.206-1.508-7.767q0-9.349,5.682-9.351A4.78,4.78,0,0,1,77.9,52.62q1.5,2.429,1.5,7.709,0,9.423-5.682,9.432a4.783,4.783,0,0,1-4.376-2.237Zm-7.418-1.9a6.555,6.555,0,0,1-2.309,5.172,9.071,9.071,0,0,1-6.192,2.013,12.409,12.409,0,0,1-7.038-2.3l1.06-2.13a12,12,0,0,0,5.324,1.468,5.592,5.592,0,0,0,3.5-.984,3.372,3.372,0,0,0,1.342-2.752c0-1.476-1.029-2.729-2.9-3.781-1.736-.953-5.2-2.94-5.2-2.94A5.921,5.921,0,0,1,46.693,54.1a6.141,6.141,0,0,1,2.1-4.854,7.926,7.926,0,0,1,5.459-1.857,11.231,11.231,0,0,1,6.264,1.834l-.953,2.13A12.2,12.2,0,0,0,54.8,50.32a4.213,4.213,0,0,0-2.926.922,3.064,3.064,0,0,0-1.11,2.344c0,1.468,1.047,2.729,2.98,3.8,1.758.962,5.311,3,5.311,3a5.824,5.824,0,0,1,2.9,5.226Zm41.977-26.183a13.718,13.718,0,0,0-5.8.841c-.447.179-1.163.179-1.226.747.246.237.282.626.492.957a6.864,6.864,0,0,0,1.548,1.821c.626.492,1.253.966,1.91,1.387,1.163.716,2.483,1.141,3.624,1.861.649.421,1.311.953,1.969,1.4.327.224.537.626.957.77v-.089c-.206-.268-.268-.658-.47-.957-.3-.3-.6-.568-.895-.864a14.421,14.421,0,0,0-3.11-3.02c-.957-.653-3.051-1.566-3.445-2.662l-.058-.063a12.039,12.039,0,0,0,2.058-.474c1.016-.268,1.946-.21,3-.474.474-.121.953-.268,1.432-.421v-.268c-.537-.537-.94-1.266-1.494-1.767a39.675,39.675,0,0,0-4.94-3.682c-.94-.6-2.13-.984-3.119-1.494-.358-.179-.957-.268-1.163-.568a11.535,11.535,0,0,1-1.23-2.3c-.859-1.647-1.7-3.468-2.447-5.2a30.982,30.982,0,0,0-1.521-3.414,30.144,30.144,0,0,0-11.57-11.185,14.57,14.57,0,0,0-3.83-1.226c-.747-.036-1.494-.089-2.237-.121A10.855,10.855,0,0,1,70.952,7.9c-1.7-1.074-6.1-3.4-7.356-.322-.805,1.942,1.195,3.857,1.888,4.841a13.792,13.792,0,0,1,1.521,2.237c.21.519.268,1.051.479,1.593a35.807,35.807,0,0,0,1.553,4.013,13.724,13.724,0,0,0,1.105,1.848c.242.327.653.479.747,1.016a8.709,8.709,0,0,0-.689,2.237,13.253,13.253,0,0,0,.868,10.067c.479.743,1.62,2.389,3.145,1.758,1.342-.537,1.047-2.237,1.432-3.736.089-.358.031-.6.215-.837v.067c.421.841.841,1.642,1.226,2.483a16.835,16.835,0,0,0,3.879,4c.716.537,1.284,1.468,2.179,1.8v-.089h-.067a3.993,3.993,0,0,0-.689-.6,15.412,15.412,0,0,1-1.566-1.79,39.194,39.194,0,0,1-3.342-5.45c-.492-.94-.9-1.951-1.3-2.877C76,29.806,76,29.269,75.7,29.09a11.042,11.042,0,0,0-1.432,2.027,17.094,17.094,0,0,0-.841,4.519c-.121.031-.063,0-.121.063-.957-.233-1.284-1.226-1.642-2.058a12.986,12.986,0,0,1-.268-7.986c.21-.626,1.105-2.6.747-3.2-.188-.568-.779-.895-1.105-1.356a11.086,11.086,0,0,1-1.074-1.91c-.716-1.673-1.074-3.526-1.852-5.2a15.5,15.5,0,0,0-1.494-2.3,15.055,15.055,0,0,1-1.647-2.327c-.148-.327-.358-.868-.121-1.226a.51.51,0,0,1,.421-.4c.394-.322,1.5.1,1.888.277a15.3,15.3,0,0,1,2.962,1.494c.421.3.872.864,1.409,1.011h.626c.957.21,2.036.063,2.931.327a19.145,19.145,0,0,1,4.3,2.058A26.635,26.635,0,0,1,88.723,23.13c.358.689.515,1.32.841,2.036.626,1.476,1.4,2.966,2.036,4.394a19.482,19.482,0,0,0,2.13,4.013c.447.626,2.246.953,3.051,1.28a21.737,21.737,0,0,1,2.058.841c1.029.626,2.031,1.342,3,2.031.492.34,1.982,1.087,2.072,1.691Z" transform="translate(0 -6.039)"/></svg>