<svg xmlns="http://www.w3.org/2000/svg" width="20.77" height="20.771" viewBox="0 0 20.77 20.771"><defs><style>.a{fill:#e9ebeb;}</style></defs><path class="a" d="M19.287,2.25H1.479A1.49,1.49,0,0,0,0,3.748V21.523a1.49,1.49,0,0,0,1.479,1.5H19.287a1.494,1.494,0,0,0,1.484-1.5V3.748A1.494,1.494,0,0,0,19.287,2.25ZM6.278,20.053H3.2V10.141H6.282v9.912ZM4.738,8.787A1.785,1.785,0,1,1,6.523,7,1.786,1.786,0,0,1,4.738,8.787ZM17.817,20.053H14.739V15.232c0-1.15-.023-2.629-1.6-2.629-1.6,0-1.85,1.252-1.85,2.545v4.905H8.211V10.141h2.953v1.354h.042a3.242,3.242,0,0,1,2.916-1.6c3.116,0,3.7,2.054,3.7,4.724Z" transform="translate(0 -2.25)"/></svg>