<svg xmlns="http://www.w3.org/2000/svg" width="121.396" height="72.916" viewBox="0 0 121.396 72.916"><defs><style>.a{fill:#ffa713;}</style></defs><path class="a" d="M34.22,30.893c-.137,4.3,2.011,6.2,2.064,7.407a1.549,1.549,0,0,1-.778,1.189l-2.428,1.7a2.022,2.022,0,0,1-1.068.364c-.082,0-1.553.347-3.885-4.858A14.91,14.91,0,0,1,16.25,42.281C13.162,42.45,4.793,40.529,5.224,31.62c-.3-7.261,6.46-11.771,13.454-11.39a38.094,38.094,0,0,1,8.913,1.189V18.456c.51-5.019-2.788-8.913-8.5-8.329A22.626,22.626,0,0,0,10.4,12.045c-1.4.641-1.574.535-2.039.535-1.406,0-.827-4.074-.558-4.59.988-1.214,6.8-3.481,12.507-3.448A14.578,14.578,0,0,1,30.87,7.819a13.331,13.331,0,0,1,3.352,9.932ZM17.828,37.037c6.151-.089,8.756-3.788,9.349-5.779a19,19,0,0,0,.389-5.2,32.6,32.6,0,0,0-7.5-.924c-2.874-.216-8.122,1.068-7.917,6.119a5.269,5.269,0,0,0,5.683,5.781Zm32.42,4.372a2.19,2.19,0,0,1-2.405-1.967L38.4,8.212a7.246,7.246,0,0,1-.364-1.627.874.874,0,0,1,.732-1c.046-.008-.4,0,4.22,0a2.155,2.155,0,0,1,2.38,1.967l6.775,26.712L58.43,7.555a2.147,2.147,0,0,1,2.428-1.942h3.255A2.1,2.1,0,0,1,66.518,7.58l6.339,27.054L79.851,7.58a2.219,2.219,0,0,1,2.405-1.967H86c.161-.025,1.167-.154,1,1.627-.082.351.647-2.022-10.005,32.226a2.189,2.189,0,0,1-2.405,1.967H71.036a2.189,2.189,0,0,1-2.405-2.039l-6.29-26.01L56.124,39.368a2.186,2.186,0,0,1-2.405,2.039H50.248Zm51.873,1.068a25.626,25.626,0,0,1-10.88-2.331,2.428,2.428,0,0,1-1.481-2.259V35.848c0-1.6,1.176-1.309,1.675-1.117A26.042,26.042,0,0,0,96.9,36.551c6.952,1.428,10.009-.436,10.759-.85a4.361,4.361,0,0,0,1-6.629c-1.988-1.667-2.936-1.73-10.078-3.983-.88-.245-8.289-2.582-8.306-9.932C90.154,9.8,95.021,4.5,103.456,4.545c2.4,0,8.807.783,10.54,2.963a2.292,2.292,0,0,1,.364,1.335v1.918q0,1.263-.924,1.263c-1.462-.163-4.057-2.119-9.325-2.039-1.307-.068-7.566.173-7.286,4.736-.082,3.6,5.047,4.945,5.633,5.1,6.916,2.081,9.228,2.426,11.972,5.611,3.251,4.22,1.5,9.161.825,10.516-3.619,7.111-12.978,6.532-13.137,6.529Zm7.625,19.89C96.463,72.177,77.18,77.4,60.716,77.4A88.983,88.983,0,0,1,.537,54.5C-.7,53.381.391,51.851,1.9,52.7A120.9,120.9,0,0,0,62,68.658a119.539,119.539,0,0,0,45.824-9.4c2.234-.948,4.129,1.48,1.92,3.107Zm5.537-6.314c-1.7-2.185-11.244-1.02-15.518-.51-1.288.146-1.506-.971-.34-1.8,7.6-5.343,20.083-3.813,21.517-2.016s-.389,14.3-7.5,20.278c-1.093.924-2.138.436-1.652-.778,1.6-4.031,5.2-12.991,3.5-15.178Z" transform="translate(0 -4.485)"/></svg>