<svg xmlns="http://www.w3.org/2000/svg" width="67.427" height="72.916" viewBox="0 0 67.427 72.916"><defs><style>.a{fill:#ffa713;}</style></defs><path class="a" d="M6.63,35.476c-3.161-5.512-3.8-10.67-1.556-14.559,3.009-5.213,10.561-7.034,20.11-5.3a.981.981,0,1,1-.35,1.928C16,15.941,9.27,17.564,6.77,21.9,4.928,25.086,5.482,29.538,8.329,34.5a.981.981,0,1,1-1.7.974ZM52.064,16.995c5.588.073,9.611,1.815,11.423,4.951,2.5,4.321.548,10.947-5.232,17.775a.981.981,0,1,0,1.492,1.267C66,33.6,68.186,26.17,65.183,20.966c-2.211-3.828-6.882-5.847-13.091-5.929a.981.981,0,1,0-.024,1.958ZM46.419,63.4a.981.981,0,0,0-1.346.335c-2.844,4.729-6.334,7.305-9.927,7.305-5,0-9.769-5.015-12.79-13.454a.981.981,0,1,0-1.845.661C23.778,67.378,29.128,73,35.139,73c4.385,0,8.444-2.99,11.611-8.252a.981.981,0,0,0-.335-1.346Zm22.4-7.9A4.69,4.69,0,0,1,61.4,59.308c-7.476,4.4-21.761,2.162-35.2-5.6A61.283,61.283,0,0,1,11.6,42.179a.981.981,0,1,1,1.45-1.319,59.29,59.29,0,0,0,14.13,11.148c12.689,7.327,26.046,9.5,32.879,5.8A4.69,4.69,0,1,1,68.819,55.5Zm-58.048,0a4.69,4.69,0,1,1-6.958-4.1c-.71-8.761,8.5-20.506,22.413-28.54A61.057,61.057,0,0,1,43.678,15.95a.981.981,0,0,1,.411,1.912,59.3,59.3,0,0,0-16.886,6.7C14.1,32.129,5.436,43.037,5.741,50.833c.116-.009.228-.018.344-.018a4.692,4.692,0,0,1,4.69,4.69ZM30.456,4.6a4.69,4.69,0,0,1,9.373,0c0,.07-.006.137-.009.2C47.582,8.818,52.975,22.5,52.975,38.314a61.467,61.467,0,0,1-2.6,18.149.981.981,0,1,1-1.87-.585,59.527,59.527,0,0,0,2.512-17.565c0-14.891-4.951-27.7-11.715-31.557A4.684,4.684,0,0,1,30.456,4.6ZM34.427,35a3.393,3.393,0,1,0,4.032,2.6A3.393,3.393,0,0,0,34.427,35Z" transform="translate(-1.392 -0.083)"/></svg>