<svg xmlns="http://www.w3.org/2000/svg" width="64.647" height="72.916" viewBox="0 0 64.647 72.916"><defs><style>.a{fill:#ffa713;}</style></defs><path class="a" d="M32.358,73.2a5.667,5.667,0,0,1-2.807-.752l-8.927-5.281c-1.331-.752-.68-1.013-.246-1.158a17.585,17.585,0,0,0,4.037-1.838.653.653,0,0,1,.666.058L31.939,68.3a.838.838,0,0,0,.825,0L59.487,52.872a.857.857,0,0,0,.405-.723V21.3a.862.862,0,0,0-.42-.738L32.763,5.154a.838.838,0,0,0-.825,0L5.244,20.577a.844.844,0,0,0-.42.738V52.148a.8.8,0,0,0,.42.709l7.321,4.225c3.979,1.982,6.41-.347,6.41-2.706V23.934a.766.766,0,0,1,.781-.767h3.386a.775.775,0,0,1,.781.767V54.391c0,5.3-2.894,8.334-7.914,8.334-1.548,0-2.764,0-6.149-1.678l-7-4.037A5.626,5.626,0,0,1,.049,52.134V21.3a5.644,5.644,0,0,1,2.807-4.876L29.551,1a5.859,5.859,0,0,1,5.614,0L61.889,16.439A5.626,5.626,0,0,1,64.7,21.315V52.148a5.662,5.662,0,0,1-2.807,4.876L35.165,72.448a5.627,5.627,0,0,1-2.807.752ZM53.931,42.8c0-5.773-3.907-7.307-12.11-8.392-8.305-1.1-9.144-1.664-9.144-3.6,0-1.606.709-3.747,6.858-3.747,5.484,0,7.509,1.186,8.349,4.89a.775.775,0,0,0,.752.608h3.473a.755.755,0,0,0,.564-.246.805.805,0,0,0,.2-.593c-.535-6.381-4.775-9.347-13.34-9.347-7.625,0-12.168,3.212-12.168,8.609,0,5.845,4.529,7.466,11.836,8.189,8.754.854,9.434,2.141,9.434,3.863,0,2.981-2.4,4.254-8.03,4.254-7.075,0-8.623-1.78-9.144-5.3a.766.766,0,0,0-.767-.651H27.236a.763.763,0,0,0-.767.767c0,4.5,2.445,9.868,14.151,9.868,8.45-.014,13.311-3.357,13.311-9.173Z" transform="translate(-0.049 -0.285)"/></svg>