<svg xmlns="http://www.w3.org/2000/svg" width="20.782" height="20.777" viewBox="0 0 20.782 20.777"><defs><style>.a{fill:#e9ebeb;}</style></defs><path class="a" d="M10.388,7.3a5.327,5.327,0,1,0,5.327,5.327A5.319,5.319,0,0,0,10.388,7.3Zm0,8.79a3.463,3.463,0,1,1,3.463-3.463A3.47,3.47,0,0,1,10.388,16.09Zm6.787-9.008a1.243,1.243,0,1,1-1.243-1.243A1.24,1.24,0,0,1,17.176,7.081ZM20.7,8.343a6.149,6.149,0,0,0-1.678-4.353,6.189,6.189,0,0,0-4.353-1.678c-1.715-.1-6.857-.1-8.572,0A6.18,6.18,0,0,0,1.746,3.984,6.169,6.169,0,0,0,.068,8.338c-.1,1.715-.1,6.857,0,8.572a6.149,6.149,0,0,0,1.678,4.353A6.2,6.2,0,0,0,6.1,22.942c1.715.1,6.857.1,8.572,0a6.149,6.149,0,0,0,4.353-1.678A6.189,6.189,0,0,0,20.7,16.91c.1-1.715.1-6.852,0-8.568ZM18.488,18.751a3.506,3.506,0,0,1-1.975,1.975c-1.368.542-4.613.417-6.125.417s-4.761.121-6.125-.417a3.506,3.506,0,0,1-1.975-1.975c-.542-1.368-.417-4.613-.417-6.125S1.751,7.865,2.289,6.5A3.506,3.506,0,0,1,4.264,4.527c1.368-.542,4.613-.417,6.125-.417s4.761-.121,6.125.417A3.506,3.506,0,0,1,18.488,6.5c.542,1.368.417,4.613.417,6.125S19.03,17.388,18.488,18.751Z" transform="translate(0.005 -2.238)"/></svg>