<svg xmlns="http://www.w3.org/2000/svg" width="32.693" height="72.916" viewBox="0 0 32.693 72.916"><defs><style>.a{fill:#ffa713;}</style></defs><path class="a" d="M42.016,28.917C38.179,12.025,29.128,6.474,28.156,4.351A27.3,27.3,0,0,1,25.929,0c-.006.058-.012.094-.015.149V.188h0C25.9.234,25.9.264,25.9.307V.352h-.006c0,.03-.006.055-.006.079V.51h-.009a.577.577,0,0,1-.009.076V.65h-.006a.217.217,0,0,1-.006.064V.775H25.85c0,.03,0,.067-.006.1V.878c-.009.052-.018.1-.027.152v.024H25.81a.16.16,0,0,0-.009.036v.052h-.009v.067h-.015v.055h-.015v.064H25.75v.058h-.012v.052h-.018V1.48h-.012v.055h-.012v.043H25.68v.039h-.009v.046h-.012a.018.018,0,0,0,0,.012V1.7h-.009a.039.039,0,0,0,0,.018v.018h-.006a.134.134,0,0,0-.006.03c-.009.021-.021.043-.03.064v.006a.092.092,0,0,0-.015.021v.024h-.012v.024h-.015v.024h-.009v.03h-.018v.043h-.012V2.02h-.012v.024h-.012v.033h-.012V2.1h-.018v.033h-.012V2.16h-.015v.024h-.009v.03h-.015v.024H25.4v.018h-.012v.024H25.37v.027h-.012v.018h-.015v.024H25.33v.033h-.015V2.4h-.009v.024h-.018v.012h-.012v.03h-.012v.012h-.012V2.5h-.015v.018h-.009l-.006.012v.012h-.006c0,.006-.006.006-.006.012v0h0a.049.049,0,0,1-.012.021v.009h0a.57.57,0,0,0-.036.055v0a.137.137,0,0,0-.027.03v.006h0s-.009.006-.009.009V2.7h-.006L25.1,2.71v0h0s-.006.006-.009.012v.012h-.009l-.006.006V2.75h-.006c0,.006-.006.006-.006.009v.009h-.012s0,.006-.006.009V2.8h-.009v.012h-.012v.018h-.012V2.85h-.015V2.825h-.015v.012h-.012v.018h-.015V2.88h-.015v.012h-.012v.018h-.012v.012H24.9v.024h-.018v.012h-.012v.018h-.015V2.99h-.012V3h-.015v.03H24.82v.012H24.8v.015H24.79v.006h-.012v.012h-.015v.03H24.75v.012h-.015v.012h-.012v.018h-.015v.012h-.015v.012H24.68V3.19h-.012v.03h-.012v.015h-.018v.012h-.012V3.26H24.61v.018H24.6V3.29h-.015v.021h-.012v.012h-.018v.018h-.006v.012h-.012v.012h-.015v.012h-.012V3.4h-.015v.012h-.009a.009.009,0,0,0,0,.006v.006h-.006l-.012.012a.057.057,0,0,1-.012.009V3.46h-.012v.015h-.012v.012h-.012V3.5H24.4l-.009.009v.009h-.006l-.006.006v.009h-.006a.3.3,0,0,1-.043.049c-.006.006-.024.021-.036.03a1.112,1.112,0,0,0-.118.1.64.64,0,0,0-.067.052v0h0l-.149.118v0c-.073.061-.143.118-.225.188v0h-.006c-.173.143-.355.3-.565.483v0h0c-.513.45-1.124,1.027-1.808,1.726l-.046.046-.012.012C17.164,10.615,10.653,19.523,9.966,33.918a31.493,31.493,0,0,0,.018,3.476v.027A33.1,33.1,0,0,0,14.323,51.87v0a38.054,38.054,0,0,0,2.813,4.269v0a38.879,38.879,0,0,0,7.638,7.674c1.34,3.108,1.215,8.443,1.215,8.443l1.957.653s-.4-5.168.161-7.662a4.733,4.733,0,0,1,1.06-2.011,25.462,25.462,0,0,0,2.421-1.96c.055-.058.085-.109.134-.164,4.621-4.308,13.252-14.917,10.293-32.2Z" transform="translate(-9.927)"/></svg>