<svg xmlns="http://www.w3.org/2000/svg" width="61" height="61" viewBox="0 0 61 61"><defs><style>.a{fill:#ffa713;}.b{fill:#202020;}</style></defs><g transform="translate(-1304 -140)"><circle class="a" cx="30.5" cy="30.5" r="30.5" transform="translate(1304 140)"/><path class="b" d="M14.674-13.717a3.291,3.291,0,0,0-1.349-1.247A4.394,4.394,0,0,0,11.31-15.4a4.281,4.281,0,0,0-3.378,1.392A5.439,5.439,0,0,0,6.7-10.266,5.587,5.587,0,0,0,8.019-6.25a5.075,5.075,0,0,0,3.842,1.378,4.383,4.383,0,0,0,4.263-2.7H10.411v-4.089H21.025v5.51A10.4,10.4,0,0,1,19.068-3.1,10.034,10.034,0,0,1,15.805-.769,10.578,10.578,0,0,1,11.31.145,10.966,10.966,0,0,1,5.873-1.174,9.177,9.177,0,0,1,2.219-4.858,11.1,11.1,0,0,1,.928-10.266a11.041,11.041,0,0,1,1.291-5.38,9.2,9.2,0,0,1,3.64-3.683,10.884,10.884,0,0,1,5.423-1.319,10.482,10.482,0,0,1,6.38,1.856,7.876,7.876,0,0,1,3.132,5.075ZM33.93,0,29.87-7.54h-.609V0H23.577V-20.445h8.961a9.267,9.267,0,0,1,4.176.856,5.993,5.993,0,0,1,2.581,2.349,6.531,6.531,0,0,1,.87,3.349,6.087,6.087,0,0,1-1.146,3.668,6.19,6.19,0,0,1-3.35,2.248L40.281,0ZM29.261-11.426h2.813a2.441,2.441,0,0,0,1.74-.551,2.1,2.1,0,0,0,.58-1.6,2.039,2.039,0,0,0-.595-1.552,2.41,2.41,0,0,0-1.726-.565H29.261Z" transform="translate(1313 180)"/></g></svg>