<svg xmlns="http://www.w3.org/2000/svg" width="200" height="63.43" viewBox="0 0 200 63.43"><defs><style>.a{fill:#e9ebeb;}</style></defs><path class="a" d="M4094.529-5437.54l-21.562-21.563a10.182,10.182,0,0,1,0-14.373l21.562-21.561a10.181,10.181,0,0,1,14.374,0l14.375,14.375a10.184,10.184,0,0,1,0,14.365l-14.375,14.378,7.189,7.186-7.189,7.188a10.126,10.126,0,0,1-7.186,2.969,10.138,10.138,0,0,1-7.188-2.961Zm-14.375-28.75,21.563,21.563,7.186-7.187-7.186-7.189,14.375-14.374-14.375-14.375Zm139.53,8.958v-11.144h-5.262v-4.689h5.262v-6.353h5.729v6.3h8.91v4.688h-8.91v11.092c0,6.561,4.116,7.03,9.428,5.154l.571,4.375a22.207,22.207,0,0,1-6.433,1.092c-5.517.02-9.3-3.035-9.3-10.507Zm-47.5.574v-28.184h5.782v28.184c0,4.272,1.146,5.624,5.572,4.9l.209,4.479a24.067,24.067,0,0,1-3.855.364c-5.25.007-7.7-2.631-7.7-9.722Zm12.968-3.9c.156-8.547,6.251-13.273,14.633-13.125a25.461,25.461,0,0,1,10.573,2.4v16.2h.052c0,2.344-.052,3.855,2.761,3.595v3.961c-3.7.674-7.5.26-7.5-4.013v-1.043a9.4,9.4,0,0,1-8.854,5.627c-7.865,0-11.665-6.293-11.665-13.583Zm5.833-.053c0,4.688,2.293,8.386,7.091,8.386,4.322,0,6.562-3.386,6.717-8.127v-7.552a13.787,13.787,0,0,0-5.417-1.091c-4.9.013-8.222,2.814-8.386,8.4Zm72.6,13.231v-25.73h5.833v25.73Zm-25.572,0v-1.146l7.5-11.717,5.623-8.126h-12.292v-4.738h20.678v.727l-7.968,12.342-5.261,7.659h13.177v5Zm-98.385,0v-37.457h15.522a12.713,12.713,0,0,1,9.518,3.711,12.709,12.709,0,0,1,3.71,9.517,12.636,12.636,0,0,1-3.764,9.406,12.629,12.629,0,0,1-9.464,3.616h-9.273v11.2Zm6.095-16.668h9.375a7.31,7.31,0,0,0,5.27-2.3,7.31,7.31,0,0,0,1.97-5.4,7.17,7.17,0,0,0-1.944-5.411,7.173,7.173,0,0,0-5.295-2.244h-9.375Zm117.239-17.4a3.362,3.362,0,0,1,1.017-2.494,3.352,3.352,0,0,1,2.524-.943,3.34,3.34,0,0,1,2.492.958,3.343,3.343,0,0,1,1,2.478,3.343,3.343,0,0,1-.958,2.494,3.343,3.343,0,0,1-2.479,1,3.418,3.418,0,0,1-2.551-.961,3.413,3.413,0,0,1-1.031-2.524Z" transform="translate(-4069.998 5498.006)"/></svg>