<svg id="Capa_1" enable-background="new 0 0 512 512" height="512" viewBox="0 0 512 512" width="512" xmlns="http://www.w3.org/2000/svg"><g><path d="m188.496 182.833-61.103-149.333h-127.393v445h512v-295.667zm87.1 183.444c0 32.218-26.211 58.429-58.429 58.429s-58.429-26.211-58.429-58.429v-116.59h30v116.59c0 15.676 12.753 28.429 28.429 28.429s28.429-12.753 28.429-28.429v-116.59h30zm59.666 58.429h-30v-175.019h30z"/><path d="m208.635 152.833h303.365v-119.333h-352.192zm223.756-74.442h30v30h-30zm-60 0h30v30h-30zm-60 0h30v30h-30z"/></g></svg>