<svg id="Capa_1" enable-background="new 0 0 512 512" height="512" viewBox="0 0 512 512" width="512" xmlns="http://www.w3.org/2000/svg"><g><path d="m159.808 33.5 48.827 119.333h303.365v-119.333zm182.583 74.891h-30v-30h30zm60 0h-30v-30h30zm60 0h-30v-30h30z"/><path d="m127.393 33.5h-127.393v445h512v-295.667h-323.504zm133.461 230.147 24.961-16.641 40.84 61.26 40.84-61.26 24.961 16.641-47.773 71.66 47.773 71.66-24.961 16.641-40.84-61.26-40.84 61.26-24.961-16.641 47.773-71.66zm-54.452 100.741v-116.59h30v116.59c0 32.218-26.211 58.429-58.429 58.429s-58.43-26.211-58.43-58.429v-116.59h30v116.59c0 15.676 12.753 28.429 28.429 28.429s28.43-12.753 28.43-28.429z"/></g></svg>