<svg xmlns="http://www.w3.org/2000/svg" width="461.345" height="665" viewBox="0 0 461.345 665"><defs><style>.a{fill:#2d2d2d;}</style></defs><path class="a" d="M383.643-60.522l6.632-61.9s-15.475-47.531,0-93.956,13.442-59.275,40.258-86.746c5.9-6.044,13.952-13.512,23.5-22,31.234-27.757,74.609-62.377,74.609-62.377s24.2-17.005,26.817-27.47,9.423-11.83-6.274-57.614.715.715-17.276-17.276-23.45-37.282-23.45-37.282-8.038-24.71,0-27.389-5.061-19.053-5.061-19.053-13.992-84.25,20.542-109.853,71.152-47.037,90.2-41.083,45.322-.6,64.673,16.374-22.746-8.712,7.945,0,67.426,25.651,57.364,63.385-.672,19.552-3.187,29.614S781.851-490.763,709.4-432.4s22.138,69.305,53.331,98.486,40.25,67.922,40.753,96.6,11.572,68.425,11.572,68.425L844.741-60.522h-461.1" transform="translate(-383.397 725.522)"/></svg>